<svg width="564" height="151" viewBox="0 0 564 151" fill="none" xmlns="http://www.w3.org/2000/svg">
<path d="M92.8 2.79999L140.2 4.19999C142.6 4.19999 145.6 3.66666 149.2 2.59999C152.933 1.39999 155.4 0.799988 156.6 0.799988C157.8 0.799988 158.733 1.19999 159.4 2C160.2 2.66666 160.6 3.53333 160.6 4.59999C160.6 7.39999 159.333 9.79999 156.8 11.8C154.267 13.6667 150.933 15 146.8 15.8C139.067 17.5333 132.2 18.4 126.2 18.4C118.067 24 110.133 40.1333 102.4 66.8C115.6 66.8 123.8 67 127 67.4L126.6 76.8C124.6 76.9333 121.6 77 117.6 77L99.4 76.4C91.9333 99.2 81.8667 117.333 69.2 130.8C56.5333 144.267 43.1333 151 29 151C20.3333 151 13.3333 148.4 8 143.2C2.66667 138 0 131.133 0 122.6C0 108.867 8.2 96.4 24.6 85.2C41 73.8667 61.2 67.8667 85.2 67.2C93.3333 41.6 102.867 25.3333 113.8 18.4L81.6 17.2C68.1333 17.2 58.0667 18.9333 51.4 22.4C44.8667 25.8667 41.6 30.4667 41.6 36.2C41.6 39.2667 42.8667 41.8667 45.4 44C47.9333 46 50.4667 47 53 47C55.5333 47 57.4 46.9333 58.6 46.8C59.9333 46.5333 61.5333 46.0667 63.4 45.4C65.4 44.6 66.8 44.0667 67.6 43.8C70.4 42.8667 73.8 41.4 77.8 39.4L82 44.6C71.8667 54.7333 60.8 59.8 48.8 59.8C43.4667 59.8 39.0667 58.1333 35.6 54.8C32.1333 51.4667 30.4 47.2667 30.4 42.2C30.4 31.1333 36.0667 21.8 47.4 14.2C58.7333 6.59999 73.8667 2.79999 92.8 2.79999ZM64.8 114.6C72 103.4 77.7333 90.8667 82 77C65.4667 78.3333 50.8667 83.6 38.2 92.8C25.6667 102 19.4 111.867 19.4 122.4C19.4 126.533 20.8 129.933 23.6 132.6C26.5333 135.267 30.3333 136.6 35 136.6C39.6667 136.6 44.7333 134.6 50.2 130.6C55.6667 126.733 60.5333 121.4 64.8 114.6Z" fill="black"/>
<path d="M189.339 42.2C181.872 42.2 178.139 39.2 178.139 33.2C178.139 29.8667 179.072 27.0667 180.939 24.8C182.806 22.5333 185.206 21.4 188.139 21.4C191.072 21.4 193.472 22.2667 195.339 24C197.206 25.7333 198.139 28 198.139 30.8C198.139 33.6 197.339 36.2 195.739 38.6C194.139 41 192.006 42.2 189.339 42.2ZM186.739 101.2L190.739 104.6C187.539 110.733 183.272 116 177.939 120.4C172.739 124.667 168.006 126.8 163.739 126.8C156.272 126.8 152.539 121.6 152.539 111.2C152.539 98.2667 157.872 81.4 168.539 60.6C170.939 56.0667 172.339 53.4 172.739 52.6L181.339 57.8C178.539 62.8667 175.072 70.9333 170.939 82C166.939 93.0667 164.939 100.2 164.939 103.4C164.939 106.467 165.606 108.667 166.939 110C168.272 111.333 169.872 112 171.739 112C175.339 112 180.339 108.4 186.739 101.2Z" fill="black"/>
<path d="M248.855 104.6L253.255 109.6C249.921 114.8 245.855 118.867 241.055 121.8C236.388 124.733 231.655 126.2 226.855 126.2C222.055 126.2 218.255 124.867 215.455 122.2C212.655 119.4 211.255 115.6 211.255 110.8C211.255 99.6 215.455 84.1333 223.855 64.4C217.055 65.4667 210.255 67.0667 203.455 69.2L202.055 61.4L201.855 61.2C208.521 58.4 217.255 56.1333 228.055 54.4C229.121 52.4 231.521 47.5333 235.255 39.8C242.721 24.4667 248.055 14.5333 251.255 9.99999L259.855 13.4C258.521 16.3333 256.188 21.2667 252.855 28.2C249.521 35 245.788 42.7333 241.655 51.4C247.655 51 252.388 50.8 255.855 50.8C259.321 50.8 261.988 51.3333 263.855 52.4V61C261.988 60.6 259.255 60.4 255.655 60.4C252.188 60.4 245.921 61 236.855 62.2C228.988 79.8 225.055 92.6 225.055 100.6C225.055 103.667 225.988 106.2 227.855 108.2C229.855 110.2 232.455 111.2 235.655 111.2C238.988 111.2 243.388 109 248.855 104.6Z" fill="black"/>
<path d="M351.87 102.8L356.07 106C353.137 111.867 349.07 116.8 343.87 120.8C338.804 124.8 334.204 126.8 330.07 126.8C325.937 126.8 322.67 125.6 320.27 123.2C317.87 120.8 316.67 117.8 316.67 114.2C316.67 110.6 318.937 104.333 323.47 95.4C328.137 86.3333 330.47 79.6667 330.47 75.4C330.47 73.5333 329.67 71.8667 328.07 70.4C326.604 68.8 324.804 68 322.67 68C315.87 68 309.004 73.2 302.07 83.6C295.137 93.8667 287.404 108.733 278.87 128.2L266.87 124C269.404 108.533 273.004 93.4667 277.67 78.8C282.47 64 286.87 53.4 290.87 47L299.07 49.6C295.337 59.0667 290.604 75.4 284.87 98.6C303.27 67.1333 320.204 51.4 335.67 51.4C339.004 51.4 341.737 52.5333 343.87 54.8C346.137 57.0667 347.27 59.7333 347.27 62.8C347.27 65.8667 346.87 68.6667 346.07 71.2C345.27 73.6 342.737 79.3333 338.47 88.4C334.337 97.3333 332.27 102.933 332.27 105.2C332.27 107.467 332.937 109.267 334.27 110.6C335.604 111.8 336.87 112.4 338.07 112.4C339.27 112.4 340.27 112.2 341.07 111.8C341.87 111.4 342.737 110.8 343.67 110C344.737 109.2 345.67 108.467 346.47 107.8C347.27 107.133 348.204 106.267 349.27 105.2C350.47 104 351.337 103.2 351.87 102.8Z" fill="black"/>
<path d="M416.844 103.4L421.444 107C417.31 112.733 411.644 117.533 404.444 121.4C397.244 125.133 390.244 127 383.444 127C376.644 127 371.177 125 367.044 121C362.91 117 360.844 111.733 360.844 105.2C360.844 92.9333 367.31 80.8667 380.244 69C393.31 57.1333 406.51 51.2 419.844 51.2C428.644 51.2 433.044 54.6667 433.044 61.6C433.044 68.8 428.377 76.0667 419.044 83.4C409.844 90.7333 396.844 97.4 380.044 103.4C381.244 106.467 383.11 108.867 385.644 110.6C388.177 112.333 390.777 113.2 393.444 113.2C399.177 113.2 406.977 109.933 416.844 103.4ZM379.044 97.4C389.844 93.6667 399.11 89 406.844 83.4C414.577 77.8 418.444 72.6667 418.444 68C418.444 66.2667 417.777 64.7333 416.444 63.4C415.11 62.0667 413.577 61.4 411.844 61.4C405.577 61.4 398.777 65.3333 391.444 73.2C384.244 80.9333 380.11 89 379.044 97.4Z" fill="black"/>
<path d="M497.533 48.8L495.733 56.6C493.466 56.3333 490.533 56.2 486.933 56.2C473.599 56.2 466.933 60.6 466.933 69.4C466.933 71.2667 469.599 76.7333 474.933 85.8C480.399 94.8667 483.133 100.933 483.133 104C483.133 111.2 480.666 116.867 475.733 121C470.933 125 464.466 127 456.333 127C445.133 127 436.133 120.8 429.333 108.4L436.933 103C438.799 104.467 440.799 106.267 442.933 108.4C445.066 110.4 446.666 111.8 447.733 112.6C450.266 114.867 453.066 116 456.133 116C459.199 116 461.866 114.933 464.133 112.8C466.399 110.533 467.533 107.8 467.533 104.6C467.533 101.267 464.599 95.1333 458.733 86.2C452.999 77.2667 450.133 71 450.133 67.4C450.133 60.8667 452.866 55.8667 458.333 52.4C463.933 48.9333 471.199 47.2 480.133 47.2C489.199 47.2 494.999 47.7333 497.533 48.8Z" fill="black"/>
<path d="M563.744 48.8L561.944 56.6C559.677 56.3333 556.744 56.2 553.144 56.2C539.81 56.2 533.144 60.6 533.144 69.4C533.144 71.2667 535.81 76.7333 541.144 85.8C546.61 94.8667 549.344 100.933 549.344 104C549.344 111.2 546.877 116.867 541.944 121C537.144 125 530.677 127 522.544 127C511.344 127 502.344 120.8 495.544 108.4L503.144 103C505.01 104.467 507.01 106.267 509.144 108.4C511.277 110.4 512.877 111.8 513.944 112.6C516.477 114.867 519.277 116 522.344 116C525.41 116 528.077 114.933 530.344 112.8C532.61 110.533 533.744 107.8 533.744 104.6C533.744 101.267 530.81 95.1333 524.944 86.2C519.21 77.2667 516.344 71 516.344 67.4C516.344 60.8667 519.077 55.8667 524.544 52.4C530.144 48.9333 537.41 47.2 546.344 47.2C555.41 47.2 561.21 47.7333 563.744 48.8Z" fill="black"/>
</svg>
